<svg width="32" height="32" viewBox="0 0 32 32" fill="none" xmlns="http://www.w3.org/2000/svg">
<rect width="32" height="32" rx="8" fill="#050505" fill-opacity="0.87"/>
<g clip-path="url(#clip0)">
<g filter="url(#filter0_d)">
<path d="M19.6567 11.6207C19.8393 11.4364 20.0875 11.3318 20.347 11.3299C20.6066 11.328 20.8563 11.4289 21.0416 11.6105C21.227 11.7922 21.3329 12.0398 21.3362 12.2993C21.3395 12.5588 21.24 12.8091 21.0593 12.9954L15.8327 19.5294C15.7429 19.6261 15.6345 19.7037 15.5141 19.7575C15.3937 19.8114 15.2636 19.8404 15.1317 19.8429C14.9998 19.8454 14.8687 19.8213 14.7463 19.772C14.6239 19.7227 14.5127 19.6493 14.4193 19.5561L10.954 16.0921C10.7699 15.9078 10.6664 15.658 10.6665 15.3975C10.6666 15.137 10.7701 14.8872 10.9543 14.7031C11.1386 14.5189 11.3884 14.4155 11.6489 14.4156C11.9094 14.4156 12.1592 14.5192 12.3433 14.7034L15.084 17.4447L19.6307 11.6514C19.6389 11.6408 19.6478 11.6308 19.6573 11.6214L19.6567 11.6207Z" fill="white"/>
</g>
</g>
<defs>
<filter id="filter0_d" x="10.6665" y="11.3299" width="10.6698" height="10.5132" filterUnits="userSpaceOnUse" color-interpolation-filters="sRGB">
<feFlood flood-opacity="0" result="BackgroundImageFix"/>
<feColorMatrix in="SourceAlpha" type="matrix" values="0 0 0 0 0 0 0 0 0 0 0 0 0 0 0 0 0 0 127 0" result="hardAlpha"/>
<feOffset dy="2"/>
<feColorMatrix type="matrix" values="0 0 0 0 0 0 0 0 0 0 0 0 0 0 0 0 0 0 0.1 0"/>
<feBlend mode="normal" in2="BackgroundImageFix" result="effect1_dropShadow"/>
<feBlend mode="normal" in="SourceGraphic" in2="effect1_dropShadow" result="shape"/>
</filter>
<clipPath id="clip0">
<rect width="10.6667" height="10.6667" fill="white" transform="translate(10.6667 10.6667)"/>
</clipPath>
</defs>
</svg>
